<svg width="200" height="60" viewBox="0 0 200 60" fill="none" xmlns="http://www.w3.org/2000/svg">
<path d="M68.9907 21.0781C68.9785 19.5392 69.4152 18.0309 70.2461 16.7419C71.0771 15.4529 72.2655 14.4405 73.6625 13.8313C75.0595 13.2222 76.603 13.0434 78.1 13.3173C79.597 13.5912 80.9808 14.3057 82.0784 15.3713L80.7824 16.691C80.07 16.0386 79.2117 15.571 78.2812 15.3283C77.3506 15.0856 76.3758 15.0751 75.4403 15.2977C74.5049 15.5204 73.6369 15.9695 72.911 16.6064C72.1851 17.2434 71.6229 18.0491 71.2728 18.9544C70.9227 19.8597 70.7952 20.8375 70.9012 21.8036C71.0072 22.7698 71.3436 23.6954 71.8813 24.5011C72.4191 25.3067 73.1423 25.9681 73.9886 26.4286C74.8349 26.889 75.7791 27.1347 76.74 27.1444C78.2892 27.1317 79.7729 26.5111 80.8785 25.4133L82.1919 26.694C81.1053 27.7928 79.7198 28.5393 78.2121 28.8382C76.7044 29.1372 75.1428 28.975 73.7266 28.3725C72.3104 27.7699 71.1037 26.7543 70.2604 25.4551C69.4171 24.156 68.9756 22.6322 68.992 21.0781H68.9907Z" fill="#E0EEEE"/>
<path d="M91.5377 13.4792H93.0469L99.0812 28.6931H97.1093L96.1052 26.1696H88.3722L87.3681 28.6931H85.4348L91.5377 13.4792ZM89.0432 24.5017H95.4442L92.2724 16.4922L89.0432 24.5017Z" fill="#E0EEEE"/>
<path d="M102.345 26.5665L103.604 25.1711C104.094 25.7582 104.7 26.2362 105.382 26.5749C106.064 26.9137 106.808 27.1059 107.568 27.1394C107.93 27.1872 108.299 27.1586 108.651 27.0553C109.002 26.9521 109.328 26.7765 109.61 26.5395C109.891 26.3026 110.12 26.0094 110.284 25.6783C110.448 25.3473 110.542 24.9856 110.561 24.6159C110.541 23.9896 110.321 23.3866 109.934 22.8971C109.547 22.4077 109.014 22.0581 108.414 21.9007L106.615 21.1714C104.527 20.3235 103.405 19.164 103.405 17.2134C103.418 16.6694 103.538 16.1335 103.759 15.6376C103.981 15.1416 104.298 14.6958 104.693 14.3265C105.088 13.9572 105.553 13.6721 106.059 13.4881C106.565 13.3041 107.103 13.2249 107.64 13.2554C108.43 13.2252 109.218 13.3578 109.956 13.6452C110.694 13.9326 111.367 14.3687 111.933 14.9272L110.81 16.3655C110.404 15.9282 109.913 15.5815 109.366 15.3477C108.82 15.114 108.232 14.9982 107.639 15.0079C107.336 14.9709 107.028 14.9984 106.736 15.0885C106.444 15.1787 106.174 15.3296 105.943 15.5315C105.712 15.7334 105.525 15.9819 105.394 16.2611C105.263 16.5403 105.192 16.844 105.184 17.1528C105.184 18.0991 105.705 18.7868 107.293 19.4353L109.148 20.2037C111.428 21.15 112.377 22.6438 112.377 24.4935C112.377 27.0523 110.481 28.8629 107.505 28.8629C106.536 28.852 105.58 28.6429 104.693 28.2483C103.806 27.8536 103.008 27.2816 102.345 26.5665Z" fill="#E0EEEE"/>
<path d="M116.023 13.4792H127.78V15.252H122.83V28.6969H120.975V15.252H116.023V13.4792Z" fill="#E0EEEE"/>
<path d="M132.096 13.4792H133.951V28.6931H132.096V13.4792Z" fill="#E0EEEE"/>
<path d="M139.755 13.4792H140.935L149.674 24.7767V13.4792H151.529V28.6931H150.407L141.608 17.3565V28.6931H139.755V13.4792Z" fill="#E0EEEE"/>
<path d="M167.338 20.2296H172.056V21.133C172.017 22.9443 171.355 24.6851 170.183 26.0551C169.011 27.4252 167.404 28.3388 165.637 28.6382C163.871 28.9376 162.057 28.6042 160.507 27.6954C158.958 26.7865 157.771 25.3593 157.15 23.6598C156.53 21.9604 156.515 20.0951 157.109 18.3858C157.702 16.6765 158.867 15.2302 160.401 14.2964C161.936 13.3626 163.745 12.9998 165.516 13.2705C167.286 13.5413 168.908 14.4286 170.102 15.7795L168.788 17.0602C168.231 16.4151 167.544 15.8972 166.774 15.5409C166.004 15.1846 165.167 14.998 164.321 14.9935C163.167 14.978 162.033 15.2992 161.055 15.9187C160.077 16.5382 159.296 17.4297 158.805 18.4865C158.315 19.5433 158.136 20.7206 158.29 21.8775C158.444 23.0344 158.925 24.122 159.674 25.0099C160.423 25.8979 161.409 26.5486 162.514 26.8843C163.62 27.22 164.797 27.2263 165.906 26.9026C167.015 26.5789 168.008 25.9389 168.766 25.0591C169.525 24.1793 170.016 23.097 170.183 21.9418H167.34L167.338 20.2296Z" fill="#E0EEEE"/>
<path d="M68.9905 34.605H70.1704L78.91 45.9024V34.605H80.7647V49.8188H79.6422L70.8439 38.4822V49.8188H68.9905V34.605Z" fill="#E0EEEE"/>
<path d="M88.4466 42.9715V48.1294H95.1357V49.8226H86.5881V34.605H95.0359V36.3184H88.4428V41.2606H94.7653V42.974H88.4466V42.9715Z" fill="#E0EEEE"/>
<path d="M98.9932 34.605H110.75V36.3714H105.8V49.8188H103.945V36.3739H98.9932V34.605Z" fill="#E0EEEE"/>
<path d="M114.311 34.605H116.244L120.075 46.6317L123.884 34.605H125.838L129.551 46.7503L133.552 34.605H135.369L130.302 49.8188H128.698L124.848 37.3795L120.805 49.8188H119.222L114.311 34.605Z" fill="#E0EEEE"/>
<path d="M138.215 42.2033C138.223 40.6513 138.684 39.1363 139.542 37.8496C140.4 36.5629 141.616 35.5623 143.036 34.9741C144.456 34.3858 146.016 34.2364 147.52 34.5446C149.023 34.8528 150.403 35.6048 151.484 36.7057C152.566 37.8065 153.301 39.2069 153.596 40.7299C153.891 42.253 153.734 43.8303 153.143 45.2629C152.553 46.6954 151.556 47.9189 150.279 48.7787C149.002 49.6386 147.501 50.0963 145.967 50.0941C144.946 50.091 143.935 49.8843 142.993 49.4861C142.051 49.0878 141.195 48.5057 140.475 47.7729C139.755 47.0402 139.185 46.1712 138.798 45.2155C138.41 44.2599 138.212 43.2363 138.215 42.2033ZM151.865 42.2033C151.846 41.03 151.484 39.8887 150.826 38.9225C150.168 37.9563 149.242 37.2084 148.165 36.7725C147.088 36.3367 145.908 36.2323 144.772 36.4726C143.637 36.7128 142.597 37.287 141.783 38.123C140.969 38.959 140.417 40.0196 140.197 41.1717C139.976 42.3237 140.097 43.516 140.544 44.5988C140.991 45.6816 141.745 46.6066 142.71 47.2579C143.675 47.9092 144.808 48.2576 145.968 48.2595C146.749 48.2554 147.521 48.0953 148.241 47.7884C148.96 47.4814 149.613 47.0337 150.161 46.471C150.709 45.9082 151.141 45.2415 151.434 44.5092C151.726 43.7768 151.873 42.9931 151.865 42.2033Z" fill="#E0EEEE"/>
<path d="M159.12 34.6057H164.726C165.326 34.575 165.925 34.6654 166.49 34.8716C167.054 35.0779 167.572 35.3959 168.014 35.8071C168.456 36.2183 168.812 36.7144 169.062 37.2664C169.312 37.8184 169.451 38.4153 169.47 39.0222C169.49 39.629 169.389 40.2337 169.175 40.8009C168.961 41.3681 168.637 41.8865 168.222 42.3256C167.808 42.7648 167.311 43.116 166.761 43.3587C166.211 43.6014 165.618 43.7308 165.018 43.7393L169.64 49.8221H167.474L162.873 43.7217H160.977V49.8221H159.12V34.6057ZM160.978 36.2775V42.1445H164.495C164.895 42.1763 165.296 42.1231 165.674 41.9884C166.052 41.8536 166.398 41.6403 166.689 41.3622C166.981 41.0841 167.211 40.7473 167.366 40.3735C167.521 39.9997 167.597 39.5973 167.589 39.1921C167.586 38.7933 167.503 38.3992 167.345 38.0338C167.187 37.6684 166.957 37.3394 166.669 37.0668C166.382 36.7941 166.042 36.5835 165.671 36.4479C165.301 36.3122 164.906 36.2542 164.513 36.2775H160.978Z" fill="#E0EEEE"/>
<path d="M175.113 34.605H176.93V42.0845L183.448 34.605H185.828L180.548 40.6284L185.963 49.8213H183.816L179.273 42.087L176.935 44.7429V49.8213H175.118V34.605H175.113Z" fill="#E0EEEE"/>
<path d="M189.964 47.6933L191.223 46.2978C191.713 46.8849 192.319 47.3629 193.001 47.7016C193.683 48.0404 194.427 48.2326 195.186 48.2661C195.549 48.3139 195.918 48.2853 196.269 48.1821C196.621 48.0788 196.947 47.9032 197.228 47.6663C197.51 47.4293 197.739 47.1361 197.903 46.805C198.067 46.474 198.161 46.1123 198.18 45.7426C198.16 45.1163 197.94 44.5133 197.553 44.0238C197.166 43.5344 196.633 43.1848 196.033 43.0274L194.237 42.2981C192.149 41.4503 191.028 40.2907 191.028 38.3401C191.04 37.7961 191.161 37.2602 191.382 36.7643C191.603 36.2683 191.921 35.8225 192.316 35.4532C192.711 35.0839 193.175 34.7988 193.682 34.6148C194.188 34.4308 194.725 34.3517 195.263 34.3821C196.053 34.3519 196.841 34.4845 197.579 34.7719C198.317 35.0593 198.989 35.4954 199.556 36.0539L198.433 37.4922C198.027 37.0549 197.535 36.7082 196.989 36.4744C196.443 36.2407 195.854 36.1249 195.261 36.1346C194.958 36.0976 194.651 36.1251 194.359 36.2152C194.067 36.3054 193.796 36.4563 193.565 36.6582C193.334 36.8601 193.147 37.1086 193.017 37.3878C192.886 37.667 192.815 37.9707 192.807 38.2795C192.807 39.2258 193.328 39.9135 194.916 40.562L196.77 41.3304C199.05 42.2767 200 43.7706 200 45.6202C200 48.179 198.104 49.9896 195.128 49.9896C194.158 49.979 193.201 49.77 192.314 49.3754C191.426 48.9808 190.627 48.4086 189.964 47.6933Z" fill="#E0EEEE"/>
<path d="M57.4292 26.6581L39.316 8.22052C38.8857 7.7836 38.3744 7.43692 37.8114 7.20036C37.2484 6.96381 36.6448 6.84204 36.0352 6.84204C35.4256 6.84204 34.8219 6.96381 34.2589 7.20036C33.6959 7.43692 33.1846 7.7836 32.7544 8.22052L30.4146 10.5963L32.2381 12.4536L34.5728 10.0765C34.7642 9.88282 34.9914 9.72917 35.2414 9.62434C35.4915 9.51951 35.7595 9.46556 36.0302 9.46556C36.3009 9.46556 36.5689 9.51951 36.819 9.62434C37.069 9.72917 37.2962 9.88282 37.4876 10.0765L55.6082 28.5153C55.9936 28.9105 56.2096 29.4433 56.2096 29.9985C56.2096 30.5536 55.9936 31.0864 55.6082 31.4816L37.4925 49.9204C37.0988 50.2974 36.5773 50.5074 36.0352 50.5074C35.4931 50.5074 34.9716 50.2974 34.5778 49.9204L16.4658 31.4816C16.0805 31.0864 15.8645 30.5536 15.8645 29.9985C15.8645 29.4433 16.0805 28.9105 16.4658 28.5153L28.3667 16.4028L26.542 14.5481L14.6449 26.6606C13.7774 27.5506 13.291 28.7504 13.291 30.0004C13.291 31.2503 13.7774 32.4501 14.6449 33.3401L32.7569 51.7777C33.1871 52.2146 33.6984 52.5613 34.2614 52.7978C34.8244 53.0344 35.428 53.1562 36.0377 53.1562C36.6473 53.1562 37.2509 53.0344 37.8139 52.7978C38.3769 52.5613 38.8882 52.2146 39.3185 51.7777L57.4329 33.3376C58.3017 32.4482 58.7888 31.2482 58.7888 29.9978C58.7888 28.7475 58.3017 27.5475 57.4329 26.6581H57.4292Z" fill="#E0EEEE"/>
<path d="M24.2063 49.9207C23.8125 50.2977 23.291 50.5078 22.7489 50.5078C22.2068 50.5078 21.6853 50.2977 21.2915 49.9207L3.17584 31.4819C2.79051 31.0867 2.57448 30.5539 2.57448 29.9988C2.57448 29.4437 2.79051 28.9109 3.17584 28.5156L21.2878 10.0768C21.4791 9.88313 21.7063 9.72949 21.9564 9.62466C22.2065 9.51983 22.4745 9.46587 22.7452 9.46587C23.0159 9.46587 23.2839 9.51983 23.5339 9.62466C23.784 9.72949 24.0112 9.88313 24.2025 10.0768L42.3158 28.5156C42.7011 28.9109 42.9171 29.4437 42.9171 29.9988C42.9171 30.5539 42.7011 31.0867 42.3158 31.4819L30.5109 43.4948L32.3343 45.352L44.1417 33.3379C45.0092 32.4479 45.4956 31.2481 45.4956 29.9981C45.4956 28.7482 45.0092 27.5484 44.1417 26.6584L26.026 8.22083C25.596 7.78383 25.085 7.43707 24.5222 7.20046C23.9593 6.96385 23.3559 6.84204 22.7464 6.84204C22.1369 6.84204 21.5335 6.96385 20.9707 7.20046C20.4079 7.43707 19.8968 7.78383 19.4669 8.22083L1.35491 26.6584C0.486772 27.5481 0 28.748 0 29.9981C0 31.2483 0.486772 32.4482 1.35491 33.3379L19.4681 51.778C19.8984 52.2149 20.4097 52.5616 20.9727 52.7981C21.5357 53.0347 22.1393 53.1565 22.7489 53.1565C23.3585 53.1565 23.9622 53.0347 24.5252 52.7981C25.0882 52.5616 25.5994 52.2149 26.0297 51.778L28.2747 49.4993L26.4513 47.6421L24.2063 49.9207Z" fill="#E0EEEE"/>
<path d="M44.2639 51.6439C44.2639 51.3441 44.3519 51.051 44.5168 50.8018C44.6816 50.5527 44.9159 50.3586 45.1899 50.2443C45.4639 50.13 45.7653 50.1005 46.0559 50.1596C46.3465 50.2188 46.6131 50.3639 46.8221 50.5765C47.0311 50.7891 47.1729 51.0597 47.2297 51.354C47.2864 51.6483 47.2555 51.953 47.1409 52.2295C47.0263 52.506 46.8331 52.7418 46.5858 52.9071C46.3385 53.0724 46.0483 53.1597 45.7519 53.158C45.3565 53.1557 44.978 52.9951 44.6992 52.7114C44.4204 52.4277 44.2639 52.044 44.2639 51.6439ZM46.9144 51.6439C46.9118 51.3312 46.7883 51.0318 46.5704 50.8099C46.3525 50.588 46.0573 50.4612 45.7482 50.4566C45.4427 50.4667 45.1531 50.5965 44.9405 50.8187C44.7279 51.0408 44.6091 51.3379 44.6091 51.6471C44.6091 51.9563 44.7279 52.2533 44.9405 52.4755C45.1531 52.6976 45.4427 52.8275 45.7482 52.8375C46.0584 52.8329 46.3545 52.7052 46.5726 52.482C46.7907 52.2587 46.9134 51.9578 46.9144 51.6439ZM45.591 51.7903H45.4912V52.4325H45.1994V50.8478H45.7856C46.1011 50.8478 46.3406 51.0017 46.3406 51.3121C46.3431 51.4285 46.3021 51.5416 46.2258 51.6288C46.1495 51.7161 46.0436 51.771 45.929 51.7827L46.3918 52.4325H46.035L45.591 51.7903ZM45.4912 51.1127V51.5417H45.7145C45.8891 51.5417 46.0301 51.4824 46.0301 51.3222C46.0301 51.1619 45.8966 51.1127 45.7182 51.1127H45.4863H45.4912Z" fill="#E0EEEE"/>
</svg>