<svg width="65" height="65" viewBox="0 0 65 65" fill="none" xmlns="http://www.w3.org/2000/svg">
<g clip-path="url(#clip0_1106_8733)">
<path d="M32.5 65C50.4493 65 65 50.4493 65 32.5C65 14.5507 50.4493 0 32.5 0C14.5507 0 0 14.5507 0 32.5C0 50.4493 14.5507 65 32.5 65Z" fill="#65A2D9"/>
<path d="M49.3541 18.1697C47.5381 21.6331 46.2492 25.3158 44.8655 29.0402C42.9106 26.8142 41.3297 25.0976 41.3297 25.0976H35.9093L28.6943 17.8828L32.747 33.0755L21.1219 24.478L14.8828 27.9572L33.0047 46.0791C31.8691 46.463 30.6381 46.7762 29.3623 47.1832L44.78 62.6008C56.266 57.9105 64.4659 46.8384 64.9745 33.79L49.3541 18.1697Z" fill="#3A7CA5"/>
<path d="M49.5638 18.3791C48.6629 17.4084 47.3588 16.8916 45.6883 16.8425C40.9717 16.6901 37.6361 19.1995 35.7744 24.2988C35.6767 24.5667 35.7363 24.8639 35.93 25.074C36.1226 25.2828 36.4119 25.3661 36.685 25.2911C37.2208 25.1438 37.7515 25.0694 38.2637 25.0694C38.9509 25.0694 39.8659 25.1957 40.3213 25.7975C40.6705 26.2597 40.7181 26.9524 40.4622 27.8566C40.2467 28.6197 39.1357 30.6618 37.7607 32.8226C36.0855 35.4555 35.1604 36.6357 34.8934 36.6357C34.01 36.6357 30.8162 22.4745 30.7282 22.164C29.8125 18.9183 29.3526 17.2892 26.3739 17.2892C24.1034 17.2892 19.04 21.4353 14.8825 25.0472C14.6267 25.2689 14.4115 25.456 14.2449 25.5989C13.8431 25.9426 13.7824 26.5389 14.1068 26.9576L14.8816 27.9553C15.2081 28.3759 15.8031 28.4639 16.2374 28.1554L16.2801 28.1248C17.6249 27.168 18.8958 26.2643 19.8551 26.2144C20.8972 26.1634 21.8018 27.7922 22.8801 31.6672C24.9336 39.1941 28.0541 48.166 31.2561 48.166C34.6022 48.166 38.5945 45.3294 43.7548 38.6138C48.4251 32.5359 50.9262 27.7155 51.0864 24.208C51.2072 21.5599 50.6948 19.5982 49.5638 18.3791Z" fill="white"/>
<path d="M49.5654 18.3791C48.6646 17.4084 47.3605 16.8916 45.6899 16.8425C40.9734 16.6901 37.6378 19.1995 35.776 24.2988C35.6784 24.5667 35.738 24.8639 35.9317 25.074C36.1243 25.2828 36.4136 25.3661 36.6867 25.2911C37.2224 25.1438 37.7532 25.0694 38.2653 25.0694C38.9525 25.0694 39.8676 25.1957 40.323 25.7975C40.6721 26.2597 40.7197 26.9524 40.4639 27.8566C40.2484 28.6197 39.1374 30.6618 37.7624 32.8226C36.0872 35.4555 35.1621 36.6357 34.8951 36.6357C34.4397 36.6357 33.3708 32.8748 32.4297 29.1868V48.0519C35.5306 47.4662 39.1851 44.5633 43.7563 38.6139C48.4267 32.536 50.9278 27.7156 51.088 24.2082C51.2088 21.5599 50.6965 19.5982 49.5654 18.3791Z" fill="#D1D1D1"/>
</g>
<defs>
<clipPath id="clip0_1106_8733">
<rect width="65" height="65" fill="white"/>
</clipPath>
</defs>
</svg>
