<svg width="65" height="65" viewBox="0 0 65 65" fill="none" xmlns="http://www.w3.org/2000/svg">
<path d="M32.5013 59.5807C47.459 59.5807 59.5846 47.4551 59.5846 32.4974C59.5846 17.5397 47.459 5.41406 32.5013 5.41406C17.5436 5.41406 5.41797 17.5397 5.41797 32.4974C5.41797 47.4551 17.5436 59.5807 32.5013 59.5807Z" fill="#FF0000"/>
<path fill-rule="evenodd" clip-rule="evenodd" d="M47.8015 22.1787C48.3419 22.7191 48.7314 23.3917 48.931 24.1295C50.0805 28.7567 49.8148 36.0647 48.9533 40.8705C48.7537 41.6083 48.3643 42.2809 47.8238 42.8213C47.2834 43.3618 46.6108 43.7512 45.873 43.9508C43.1721 44.6875 32.3015 44.6875 32.3015 44.6875C32.3015 44.6875 21.431 44.6875 18.7301 43.9508C17.9923 43.7512 17.3197 43.3618 16.7793 42.8213C16.2388 42.2809 15.8494 41.6083 15.6498 40.8705C14.4934 36.2634 14.8105 28.9509 15.6274 24.1518C15.827 23.4139 16.2165 22.7413 16.7569 22.2009C17.2974 21.6604 17.97 21.2711 18.7077 21.0714C21.4086 20.3348 32.2792 20.3125 32.2792 20.3125C32.2792 20.3125 43.1498 20.3125 45.8507 21.0492C46.5884 21.2488 47.261 21.6382 47.8015 22.1787ZM37.8372 32.5L28.8194 37.7232V27.2767L37.8372 32.5Z" fill="white"/>
</svg>
