<?xml version="1.0" encoding="iso-8859-1"?>
<!-- Uploaded to: SVG Repo, www.svgrepo.com, Generator: SVG Repo Mixer Tools -->
<svg height="800px" width="800px" version="1.1" id="Layer_1" xmlns="http://www.w3.org/2000/svg" xmlns:xlink="http://www.w3.org/1999/xlink" 
	 viewBox="0 0 512 512" xml:space="preserve">
<path style="fill:#DF6246;" d="M433.941,223.932l-73.816-73.815l0,0l-11.022-11.022L288.065,78.06
	c-3.46-3.462-7.846-5.426-12.361-5.912c-0.113-0.012-0.224-0.029-0.337-0.04c-4.305-0.393-8.7,0.58-12.521,2.884
	c-1.406,0.847-2.742,1.855-3.955,3.068l-0.003,0.003l-58.349,58.346c-0.058,0.058-0.109,0.122-0.164,0.182
	c-0.005,0.005-0.011,0.012-0.016,0.019c-0.351,0.36-0.688,0.732-1.008,1.114c-0.087,0.102-0.175,0.201-0.259,0.304
	c-0.373,0.461-0.725,0.937-1.056,1.426c-0.072,0.107-0.139,0.217-0.208,0.325c-0.271,0.417-0.525,0.843-0.765,1.278
	c-0.069,0.122-0.139,0.243-0.202,0.367c-0.276,0.528-0.534,1.066-0.763,1.615c-0.037,0.088-0.067,0.179-0.103,0.267
	c-0.191,0.474-0.363,0.957-0.517,1.445c-0.048,0.15-0.096,0.3-0.14,0.452c-0.144,0.496-0.271,1-0.378,1.506
	c-0.019,0.083-0.045,0.161-0.062,0.243l-18.223,91.126l-24.958,24.958l-24.958,24.958c-7.666-3.658-17.116-2.335-23.466,4.015
	L64.392,330.91c-6.348,6.348-7.673,15.798-4.015,23.466L6.043,408.709c-3.525,3.525-5.508,8.007-5.948,12.61
	C0.032,421.977,0,422.635,0,423.296c0,5.28,2.015,10.56,6.043,14.587l33.159,33.159l0,0l34.914,34.914
	c4.028,4.028,9.308,6.043,14.587,6.043c5.278,0,10.56-2.015,14.587-6.043l170.633-170.63l91.126-18.223
	c0.084-0.016,0.161-0.044,0.245-0.062c0.506-0.109,1.008-0.232,1.505-0.378c0.153-0.044,0.303-0.092,0.451-0.14
	c0.488-0.155,0.972-0.327,1.448-0.518c0.088-0.036,0.179-0.066,0.265-0.102c0.55-0.23,1.088-0.487,1.617-0.765
	c0.124-0.065,0.242-0.133,0.364-0.201c0.436-0.239,0.864-0.496,1.283-0.767c0.107-0.069,0.215-0.135,0.319-0.205
	c0.49-0.331,0.967-0.685,1.43-1.059c0.1-0.081,0.195-0.168,0.294-0.25c0.386-0.326,0.766-0.667,1.129-1.023
	c0.062-0.059,0.131-0.111,0.191-0.172l58.352-58.352c3.869-3.869,6.043-9.116,6.043-14.587S437.81,227.801,433.941,223.932z"/>
<g>
	<path style="fill:#F1CB30;" d="M491.37,144.156h-29.054c-11.393,0-20.63,9.237-20.63,20.63c0,11.393,9.237,20.63,20.63,20.63
		h29.054c11.393,0,20.63-9.237,20.63-20.63C512,153.391,502.763,144.156,491.37,144.156z"/>
	<path style="fill:#F1CB30;" d="M347.216,0.002c-11.392,0-20.628,9.235-20.63,20.627l-0.003,29.052
		c-0.001,11.394,9.234,20.63,20.628,20.631h0.001c11.392,0,20.628-9.235,20.63-20.628l0.003-29.052
		C367.848,9.24,358.612,0.003,347.216,0.002L347.216,0.002z"/>
	<path style="fill:#F1CB30;" d="M428.605,104.026c5.278,0,10.56-2.015,14.587-6.042l20.544-20.543
		c8.055-8.057,8.057-21.118,0.001-29.175c-8.057-8.057-21.118-8.057-29.176,0l-20.544,20.542
		c-8.055,8.057-8.057,21.118-0.001,29.175C418.045,102.012,423.325,104.026,428.605,104.026z"/>
</g>
<path style="fill:#313133;" d="M77.854,366.073c0.375,0.021,0.75,0.054,1.125,0.054c5.28,0,10.56-2.013,14.587-6.042l38.901-38.901
	c4.316-4.314,6.296-10.065,5.988-15.713c-0.265-4.897-2.247-9.721-5.988-13.462c-1.707-1.708-3.647-3.031-5.709-4.015
	c-7.666-3.658-17.116-2.335-23.466,4.015L64.392,330.91c-6.348,6.348-7.673,15.798-4.015,23.466
	c0.983,2.062,2.308,4.002,4.015,5.709C68.132,363.826,72.955,365.807,77.854,366.073z"/>
<path style="fill:#D8143A;" d="M181.092,262.835l14.587,14.587l38.898,38.898l14.588,14.587c3.907,3.907,9.171,6.043,14.587,6.043
	c1.345,0,2.7-0.132,4.045-0.4l6.124-1.225l91.126-18.223c0.084-0.017,0.161-0.044,0.245-0.062c0.506-0.109,1.008-0.232,1.505-0.378
	c0.153-0.044,0.303-0.092,0.451-0.14c0.488-0.155,0.972-0.327,1.448-0.518c0.088-0.036,0.179-0.066,0.265-0.102
	c0.55-0.23,1.088-0.487,1.617-0.765c0.124-0.065,0.242-0.133,0.364-0.201c0.436-0.239,0.864-0.496,1.283-0.767
	c0.107-0.069,0.215-0.135,0.319-0.205c0.491-0.331,0.967-0.685,1.43-1.059c0.1-0.081,0.195-0.168,0.294-0.25
	c0.386-0.326,0.766-0.667,1.129-1.023c2.451-2.39,4.32-5.386,5.349-8.781c2.205-7.281,0.223-15.186-5.157-20.565l-14.587-14.587
	L229.715,136.409c-5.379-5.382-13.291-7.361-20.565-5.157c-3.401,1.03-6.399,2.902-8.791,5.357c-0.351,0.36-0.688,0.732-1.008,1.114
	c-0.087,0.102-0.175,0.201-0.259,0.304c-0.373,0.461-0.725,0.937-1.056,1.426c-0.072,0.107-0.139,0.217-0.208,0.325
	c-0.271,0.417-0.525,0.843-0.765,1.278c-0.069,0.122-0.139,0.243-0.204,0.367c-0.276,0.528-0.534,1.066-0.763,1.615
	c-0.037,0.088-0.067,0.179-0.103,0.267c-0.191,0.474-0.363,0.957-0.517,1.445c-0.048,0.15-0.096,0.3-0.14,0.452
	c-0.144,0.496-0.271,1-0.378,1.506c-0.019,0.083-0.045,0.161-0.062,0.243l-18.223,91.126l-1.225,6.124
	C174.097,250.966,176.214,257.958,181.092,262.835z"/>
<g>
	<path style="fill:#DD512A;" d="M258.891,78.06l-58.352,58.349c-0.063,0.063-0.118,0.136-0.182,0.201
		c2.39-2.455,5.39-4.327,8.791-5.357c7.274-2.203,15.186-0.224,20.565,5.157l72.06,72.06l58.351-58.351l-72.06-72.058
		C280.012,70.004,266.949,70.004,258.891,78.06z"/>
	<path style="fill:#DD512A;" d="M195.68,277.421l-14.587-14.587c-4.878-4.877-6.995-11.869-5.643-18.633l1.225-6.124l-49.917,49.917
		c2.062,0.983,4.002,2.306,5.709,4.015c3.742,3.741,5.723,8.564,5.988,13.462c0.308,5.648-1.674,11.399-5.988,15.713l-38.901,38.901
		c-4.028,4.028-9.308,6.043-14.587,6.043c-0.375,0-0.75-0.033-1.125-0.054c-4.899-0.265-9.721-2.247-13.462-5.988
		c-1.707-1.707-3.031-3.647-4.015-5.709L6.043,408.709c-8.057,8.055-8.057,21.118,0,29.175l33.159,33.159l175.049-175.049
		L195.68,277.421z"/>
</g>
<path style="fill:#B8002B;" d="M209.148,131.253c-3.401,1.03-6.399,2.902-8.791,5.357c-0.351,0.36-0.688,0.732-1.008,1.114
	c-0.087,0.102-0.175,0.201-0.259,0.304c-0.373,0.461-0.725,0.937-1.056,1.426c-0.072,0.107-0.139,0.217-0.208,0.325
	c-0.271,0.417-0.525,0.843-0.765,1.278c-0.069,0.122-0.139,0.243-0.202,0.367c-0.276,0.528-0.534,1.066-0.763,1.615
	c-0.037,0.088-0.067,0.179-0.103,0.267c-0.191,0.474-0.363,0.957-0.517,1.445c-0.048,0.15-0.096,0.3-0.14,0.452
	c-0.144,0.496-0.271,1-0.378,1.506c-0.019,0.083-0.045,0.161-0.062,0.243l-18.223,91.126l-1.225,6.124
	c-1.352,6.764,0.765,13.756,5.643,18.633l14.587,14.587l18.572,18.572l87.524-87.524l-72.06-72.06
	C224.335,131.028,216.424,129.049,209.148,131.253z"/>
</svg>